<svg width="192" height="192" viewBox="0 0 192 192" fill="none" xmlns="http://www.w3.org/2000/svg">
<rect width="192" height="192" fill="white"/>
<g clip-path="url(#clip0_1286_3)">
<path d="M129.684 62.3158H62.3158V129.684H129.684V62.3158Z" fill="white"/>
<path d="M129.684 160L160 129.684L144.842 127.098L129.684 129.684L126.918 143.549L129.684 160Z" fill="#EA4335"/>
<path d="M32 129.684V149.895C32 155.478 36.5221 160 42.1053 160H62.3158L65.4284 144.842L62.3158 129.684L45.7996 127.098L32 129.684Z" fill="#188038"/>
<path d="M160 62.3158V42.1053C160 36.5221 155.478 32 149.895 32H129.684C127.84 39.5179 126.918 45.0505 126.918 48.5979C126.918 52.1452 127.84 56.7178 129.684 62.3158C136.389 64.2357 141.442 65.1957 144.842 65.1957C148.243 65.1957 153.295 64.2357 160 62.3158Z" fill="#1967D2"/>
<path d="M160 62.3158H129.684V129.684H160V62.3158Z" fill="#FBBC04"/>
<path d="M129.684 129.684H62.3158V160H129.684V129.684Z" fill="#34A853"/>
<path d="M129.684 32H42.1053C36.5221 32 32 36.5221 32 42.1053V129.684H62.3158V62.3158H129.684V32Z" fill="#4285F4"/>
<path d="M76.1348 114.577C73.6169 112.876 71.8737 110.392 70.9221 107.107L76.7663 104.699C77.2969 106.72 78.2232 108.286 79.5453 109.398C80.859 110.509 82.459 111.057 84.3284 111.057C86.24 111.057 87.8821 110.476 89.2548 109.314C90.6274 108.152 91.3179 106.669 91.3179 104.876C91.3179 103.04 90.5937 101.541 89.1453 100.379C87.6969 99.2169 85.8779 98.6358 83.7053 98.6358H80.3284V92.8505H83.36C85.2295 92.8505 86.8042 92.3453 88.0842 91.3348C89.3642 90.3242 90.0042 88.9432 90.0042 87.1832C90.0042 85.6169 89.4316 84.3706 88.2863 83.4358C87.1411 82.5011 85.6926 82.0295 83.9326 82.0295C82.2148 82.0295 80.8505 82.4842 79.84 83.4021C78.8302 84.3225 78.0709 85.4845 77.6337 86.779L71.8484 84.3706C72.6148 82.1979 74.0211 80.2779 76.0842 78.619C78.1474 76.96 80.7832 76.1263 83.9832 76.1263C86.3495 76.1263 88.48 76.5811 90.3663 77.499C92.2527 78.4169 93.7348 79.6884 94.8042 81.3053C95.8737 82.9306 96.4042 84.7495 96.4042 86.7706C96.4042 88.8337 95.9074 90.5769 94.9137 92.0084C93.92 93.44 92.699 94.5348 91.2505 95.3011V95.6463C93.1208 96.4174 94.7454 97.6839 95.9495 99.3095C97.1705 100.952 97.7853 102.914 97.7853 105.204C97.7853 107.495 97.2042 109.541 96.0421 111.335C94.88 113.128 93.2716 114.543 91.2337 115.571C89.1874 116.598 86.8884 117.12 84.3369 117.12C81.3811 117.128 78.6526 116.278 76.1348 114.577ZM112.034 85.5748L105.617 90.2148L102.408 85.3474L113.92 77.0442H118.333V116.211H112.034V85.5748Z" fill="#4285F4"/>
</g>
<defs>
<clipPath id="clip0_1286_3">
<rect width="128" height="128" fill="white" transform="translate(32 32)"/>
</clipPath>
</defs>
</svg>
