<svg width="192" height="192" viewBox="0 0 192 192" fill="none" xmlns="http://www.w3.org/2000/svg">
<rect width="192" height="192" fill="#009EFB"/>
<path fill-rule="evenodd" clip-rule="evenodd" d="M130.594 71.7179C128.045 73.6563 125.289 75.3427 122.363 76.7266C120.175 71.6122 117.347 66.8356 113.987 62.4887C116.092 63.0857 118.127 63.8473 120.082 64.7518L118.232 67.1646L122.583 68.3251L124.309 67.0132C126.554 68.3854 128.658 69.9602 130.594 71.7179ZM144.141 100.481H127.567C127.368 93.3903 126.033 86.5824 123.742 80.2287C127.152 78.6409 130.35 76.6774 133.29 74.3987C139.663 81.3398 143.693 90.4467 144.141 100.481ZM132.717 130.917C129.977 128.49 126.943 126.387 123.672 124.671C126.006 118.261 127.366 111.385 127.567 104.221H144.141C143.681 114.554 139.42 123.904 132.717 130.917ZM113.979 142.216C117.3 137.923 120.102 133.212 122.278 128.168C125.058 129.659 127.645 131.457 129.997 133.514C125.432 137.502 119.983 140.514 113.979 142.216ZM104.434 143.752V123.273C109.553 123.5 114.431 124.645 118.906 126.55C116.287 132.668 112.658 138.362 108.106 143.428C106.898 143.589 105.674 143.697 104.434 143.752ZM104.434 104.221H123.81C123.615 110.734 122.414 117.075 120.275 123.065C115.376 120.994 110.035 119.759 104.434 119.531V104.221ZM104.434 84.8621C110 84.6578 115.332 83.5499 120.292 81.6801C122.42 87.657 123.616 93.9832 123.81 100.481H104.434V84.8621ZM104.434 60.9502C105.672 61.0049 106.895 61.1132 108.103 61.2732C112.663 66.3494 116.298 72.0543 118.921 78.1864C114.386 79.8968 109.514 80.9175 104.434 81.1202V60.9502ZM100.677 81.1202C95.5979 80.9173 90.7257 79.8968 86.1909 78.1861C88.8122 72.0542 92.4481 66.3494 97.0089 61.2733C98.2169 61.1132 99.4403 61.0049 100.677 60.9502V81.1202ZM100.677 100.481H81.3022C81.4957 93.9832 82.6919 87.657 84.8201 81.6798C89.7796 83.5496 95.1119 84.6578 100.677 84.8621V100.481ZM100.677 119.531C95.0765 119.759 89.7348 120.994 84.8366 123.065C82.6978 117.075 81.4968 110.734 81.3022 104.221H100.677V119.531ZM100.677 143.752C99.4379 143.697 98.2134 143.589 97.0053 143.428C92.454 138.362 88.8252 132.668 86.2051 126.55C90.6809 124.645 95.559 123.5 100.677 123.273V143.752ZM75.1146 133.514C77.4669 131.457 80.0541 129.659 82.8323 128.168C85.01 133.212 87.8118 137.923 91.1327 142.216C85.1292 140.514 79.6801 137.502 75.1146 133.514ZM60.971 104.221H77.5448C77.7477 111.385 79.1055 118.261 81.4402 124.671C78.1688 126.387 75.1346 128.49 72.3953 130.917C65.6922 123.904 61.4311 114.554 60.971 104.221ZM71.822 74.3987C74.7618 76.6774 77.9601 78.6409 81.3718 80.2287C79.0784 86.5824 77.7441 93.3903 77.5448 100.481H60.971C61.4193 90.4467 65.4492 81.3398 71.822 74.3987ZM91.1245 62.4887C87.7647 66.8356 84.9357 71.6122 82.7485 76.7265C79.8228 75.3426 77.067 73.6563 74.5177 71.7177C79.2011 67.4668 84.8614 64.2657 91.1245 62.4887ZM143.232 52.5435L139.783 51.6237L132.046 33.1605L127.697 32L129.925 49.2154L118.836 46.5798L116.355 40.5219L112.392 39.4649L113.376 46.2731C109.054 45.2471 104.544 44.7022 99.9063 44.7022C67.9266 44.7022 42 70.5125 42 102.351C42 134.19 67.9266 160 99.9063 160C102.309 160 104.676 159.852 107.003 159.569C106.114 159.61 105.221 159.634 104.323 159.634C73.0347 159.634 47.6709 134.381 47.6709 103.231C47.6709 72.0803 73.0347 46.8281 104.323 46.8281C107.184 46.8281 109.993 47.0438 112.739 47.4518L113.049 47.6137L108.728 53.0819L112.691 54.139L117.88 50.1275L128.808 53.3651L122.412 61.7111C116.413 58.8013 109.677 57.1667 102.557 57.1667C77.4905 57.1667 57.1711 77.3965 57.1711 102.351C57.1711 127.306 77.4905 147.535 102.557 147.535C127.621 147.535 147.941 127.306 147.941 102.351C147.941 86.5665 139.809 72.675 127.492 64.5951L138.555 56.1873L142.004 57.1072C145.323 57.9925 150.402 59.1127 150.957 57.0499C151.512 54.9871 146.551 53.4289 143.232 52.5435Z" fill="white"/>
</svg>
