<svg width="216" height="54" viewBox="0 0 216 54" fill="#5551DA" xmlns="http://www.w3.org/2000/svg">
<path d="M136.475 12.7093C137.406 12.7093 138.337 12.7213 139.267 12.7047C139.791 12.6953 140.073 12.8781 140.076 13.4434C140.078 13.8227 140.175 14.2004 140.197 14.5805C140.224 15.0477 140.408 15.0465 140.727 14.804C143.164 12.9519 145.984 12.2352 148.974 12.1598C150.745 12.1151 152.512 12.2988 154.029 13.3953C155.65 14.5672 156.139 16.272 156.252 18.1465C156.402 20.6307 155.82 23.0327 155.398 25.4503C154.983 27.8238 154.569 30.1985 154.086 32.5588C153.67 34.5891 152.932 36.4945 151.569 38.1087C150.152 39.7851 148.287 40.6894 146.213 41.2193C143.173 41.9959 140.084 42.1127 136.978 41.7722C136.345 41.7028 136.15 41.9141 136.052 42.49C135.512 45.6652 134.927 48.8329 134.394 52.0093C134.287 52.6464 134.059 52.9383 133.372 53.0193C131.099 53.2875 128.836 53.6395 126.567 53.953C125.748 54.0663 125.707 54.029 125.853 53.1963C127.106 46.0523 128.364 38.9091 129.623 31.7661C130.696 25.6806 131.784 19.5977 132.831 13.5078C132.944 12.8543 133.229 12.6802 133.825 12.7003C134.707 12.73 135.591 12.7079 136.475 12.7093ZM140.051 34.9152C140.259 34.9152 140.426 34.9156 140.593 34.9152C143.965 34.9036 145.435 33.8049 146.104 30.5273C146.762 27.3058 147.279 24.0552 147.831 20.8129C147.988 19.8896 147.56 19.3363 146.64 19.2076C146.244 19.1523 145.83 19.1733 145.43 19.2168C143.879 19.3854 142.501 19.9834 141.205 20.8496C140.187 21.5304 139.557 22.313 139.368 23.614C138.862 27.1037 138.197 30.5708 137.571 34.0424C137.504 34.4123 137.754 34.7647 138.125 34.8224C138.781 34.9241 139.436 34.8796 140.051 34.9155V34.9152Z"/>
<path d="M169.853 41.9418C169.074 41.9925 168.113 41.9418 167.179 41.767C166.405 41.6219 166.262 41.9719 166.157 42.5987C165.641 45.6576 165.07 48.7071 164.574 51.769C164.44 52.5969 164.148 52.9752 163.25 53.067C161.092 53.2879 158.949 53.6498 156.798 53.9459C155.951 54.0625 155.846 53.9541 155.989 53.1392C157.765 43.0576 159.544 32.9764 161.321 22.8948C161.867 19.7928 162.429 16.6934 162.943 13.5858C163.085 12.7278 163.511 12.6031 164.592 12.742C166.018 12.9251 167.458 12.909 168.883 12.7242C169.852 12.5985 170.172 12.8348 170.26 13.5764C170.315 14.0356 170.07 14.716 170.488 14.903C170.87 15.0738 171.274 14.4863 171.672 14.2421C173.625 13.0433 175.749 12.4393 178.025 12.231C179.302 12.1144 180.551 12.1627 181.795 12.4054C184.563 12.9461 186.211 14.9548 186.359 17.7851C186.482 20.1238 186.095 22.3968 185.675 24.6749C185.217 27.1625 184.805 29.6589 184.319 32.1406C183.93 34.1218 183.289 36.0164 182.062 37.6643C180.489 39.7776 178.268 40.7969 175.788 41.3607C173.896 41.7908 171.971 41.9462 169.854 41.9418H169.853ZM170.308 34.8954C170.785 34.8954 171.266 34.9321 171.739 34.8888C173.487 34.7295 174.908 34.0336 175.683 32.3547C175.973 31.7245 176.177 31.0636 176.299 30.3784C176.851 27.2794 177.413 24.182 177.955 21.0812C178.14 20.0227 177.409 19.1583 176.335 19.1695C173.87 19.1952 171.837 20.2539 170.056 21.8824C169.83 22.0891 169.757 22.3505 169.708 22.6426C169.499 23.8891 169.272 25.1326 169.054 26.3775C168.609 28.9144 168.176 31.4533 167.713 33.9867C167.615 34.5228 167.721 34.7631 168.308 34.8267C168.976 34.8988 169.642 34.8798 170.308 34.8952L170.308 34.8954Z"/>
<path d="M87.462 41.3605C86.3636 41.3605 85.2653 41.3649 84.1669 41.3591C83.3318 41.3545 83.2989 41.3122 83.4407 40.5027C84.5147 34.367 85.59 28.2318 86.6645 22.0964C86.9534 20.4471 86.5713 20.0502 84.9474 20.3954C82.7807 20.8561 80.7915 21.7925 78.8169 22.7601C78.4441 22.9427 78.3619 23.2631 78.2973 23.6337C77.3132 29.2764 76.3109 34.9157 75.3413 40.5608C75.2282 41.2191 74.97 41.427 74.184 41.3571C72.1047 41.1718 70.0157 41.1542 67.9377 41.3521C67.0071 41.4407 66.8512 41.2258 66.9702 40.5546C68.7696 30.4271 70.5533 20.2968 72.3405 10.1673C72.8256 7.4175 73.3278 4.67052 73.7816 1.91573C73.9238 1.05273 74.4201 0.912602 75.6506 0.968732C77.4724 1.05172 79.2972 0.816779 81.0242 0.230819C82.5612 -0.290791 82.4251 0.163463 82.3339 0.685674C81.7379 4.09439 81.1429 7.5033 80.5473 10.9122C80.3501 12.0406 80.1508 13.1686 79.9546 14.2973C79.9267 14.458 79.8331 14.6495 79.9734 14.7738C80.1568 14.9361 80.3308 14.7517 80.4918 14.6765C83.4146 13.3104 86.4512 12.3223 89.6922 12.1757C92.7344 12.038 94.9851 13.0915 95.384 16.7778C95.633 19.079 95.156 21.2911 94.7706 23.5185C93.7937 29.1622 92.7793 34.7994 91.8113 40.4447C91.6892 41.1566 91.3991 41.4094 90.6847 41.3747C89.6128 41.3228 88.5363 41.3613 87.462 41.3611V41.3605Z"/>
<path d="M119.132 41.344C117.833 41.3849 116.531 41.3296 115.232 41.3671C114.688 41.3827 114.35 41.2416 114.369 40.6245C114.374 40.4369 114.309 40.2481 114.287 40.0584C114.164 39.0134 114.168 39.0184 113.246 39.6056C110.159 41.5689 106.797 42.3016 103.182 41.7828C100.279 41.3663 98.6087 39.3899 98.476 36.4504C98.3574 33.8189 98.8808 31.2732 99.3388 28.7137C99.7508 26.4117 100.059 24.0898 100.626 21.8175C101.996 16.3245 105.129 13.4322 110.718 12.571C115.765 11.7934 120.707 12.4108 125.584 13.7983C126.149 13.959 126.194 14.2842 126.109 14.7689C125.049 20.8103 123.996 26.8534 122.943 32.896C122.496 35.4589 122.031 38.0189 121.619 40.5874C121.519 41.2121 121.243 41.3937 120.641 41.3662C120.138 41.3432 119.635 41.3282 119.132 41.344ZM113.785 19.295C113.338 19.3437 112.767 19.3864 112.202 19.4718C111.014 19.6515 110.027 20.1699 109.394 21.2369C109.024 21.8604 108.81 22.547 108.684 23.2524C108.123 26.3747 107.576 29.4991 107.033 32.6246C106.753 34.2393 107.44 34.9203 109.067 34.695C111.122 34.4105 112.847 33.4316 114.45 32.1849C114.691 31.9973 114.799 31.7503 114.851 31.4542C115.498 27.7661 116.147 24.0779 116.808 20.3922C116.912 19.8076 116.682 19.5334 116.12 19.4859C115.383 19.4237 114.647 19.3652 113.785 19.2948V19.295Z"/>
<path d="M200.442 33.4052C200.986 32.126 201.464 31.0166 201.931 29.9024C203.351 26.5122 204.763 23.1185 206.187 19.7294C206.947 17.919 207.173 16.0473 206.812 14.121C206.704 13.5431 206.906 13.3534 207.438 13.2798C209.659 12.9721 211.879 12.6548 214.095 12.3094C214.657 12.2218 214.893 12.4309 214.972 12.9505C215.425 15.9091 215.259 18.7852 213.999 21.5617C210.991 28.1902 208.001 34.8273 205.033 41.4743C202.195 47.832 197.406 51.9035 190.742 53.8251C190.131 54.0014 189.943 53.7842 189.805 52.7186C189.606 51.1838 189.088 49.7136 188.344 48.3564C187.875 47.5019 188.222 47.3519 188.685 47.1675C191.199 46.1684 193.5 44.8429 195.299 42.7703C195.637 42.381 196.283 41.9558 196.12 41.531C195.962 41.1209 195.212 41.3494 194.737 41.3789C194.038 41.4222 193.78 41.1586 193.686 40.476C192.868 34.5444 192.021 28.6168 191.181 22.6881C190.79 19.9245 190.413 17.1586 189.991 14.3996C189.897 13.7898 190.084 13.6058 190.664 13.5294C192.887 13.2367 195.104 12.8978 197.324 12.5782C198.175 12.4557 198.251 12.5002 198.341 13.3835C198.745 17.3451 199.135 21.3081 199.533 25.2703C199.776 27.6903 200.021 30.1101 200.272 32.5295C200.295 32.7599 200.359 32.9862 200.442 33.405L200.442 33.4052Z"/>
<path d="M56.3712 41.3621C55.2489 41.3621 54.1263 41.3416 53.0047 41.3699C52.3618 41.3861 52.1824 41.1803 52.2995 40.5209C53.4059 34.2943 54.4828 28.0624 55.5687 21.832C55.8016 20.4957 55.4316 20.0919 54.0754 20.3531C51.7795 20.7951 49.6778 21.7742 47.6066 22.8205C47.1329 23.0598 47.1868 23.5447 47.1151 23.9477C46.4762 27.5426 45.8555 31.141 45.2283 34.7381C44.8961 36.6425 44.5405 38.5429 44.2396 40.4522C44.1362 41.1081 43.8942 41.3906 43.1835 41.3773C40.9877 41.336 38.7904 41.3456 36.5941 41.3723C35.9291 41.3803 35.7238 41.2079 35.8493 40.5025C37.0407 33.8059 38.199 27.1038 39.3681 20.4032C39.7291 18.3344 40.1106 16.2688 40.4446 14.1956C40.5362 13.6273 40.7912 13.3966 41.3838 13.3236C43.2962 13.0883 45.2052 12.812 47.0784 12.3598C47.6956 12.2108 47.948 12.3471 47.9334 12.9046C47.9191 13.4535 47.9408 14.0034 47.9185 14.5517C47.8949 15.1314 48.0665 15.2723 48.626 15.0093C50.6166 14.0732 52.6609 13.2659 54.7997 12.7364C56.4698 12.3229 58.1633 12.025 59.8967 12.2269C62.7051 12.5538 64.139 14.1648 64.2857 17.0288C64.4056 19.3674 63.9842 21.6393 63.5813 23.9198C62.618 29.3721 61.667 34.8267 60.7078 40.2796C60.5174 41.3623 60.5102 41.3615 59.3795 41.3621C58.3768 41.3627 57.3739 41.3621 56.3712 41.3615V41.3621Z"/>
<path d="M17.8572 41.9479C14.8264 41.9521 11.9651 41.39 9.5756 39.3591C7.65635 37.7281 6.68229 35.6132 6.50428 33.1182C6.35774 31.0658 6.86852 29.0886 7.22415 27.0964C7.63891 24.7718 7.92758 22.4226 8.71801 20.172C10.0601 16.3511 13.3594 13.565 17.317 12.7064C20.5062 12.0144 23.7268 11.8386 26.9261 12.7163C30.5186 13.7017 32.8556 15.965 33.6523 19.6738C33.9147 20.896 33.9409 22.1435 33.7256 23.3704C33.2022 26.3531 32.8061 29.3627 32.065 32.3023C30.6696 37.8365 27.3557 40.8028 21.7062 41.652C20.4314 41.8437 19.1506 41.9701 17.8572 41.9479ZM18.816 34.9122C21.8152 34.9102 23.5651 33.5548 24.0985 30.7417C24.5606 28.3058 24.9856 25.8622 25.3727 23.4133C25.5094 22.5485 25.5926 21.6368 25.161 20.814C24.6239 19.7907 23.6749 19.3801 22.5842 19.2374C20.0172 18.9012 16.8393 19.6644 16.2254 23.549C15.8199 26.1154 15.3312 28.6687 14.9098 31.2326C14.6179 33.0077 15.5184 34.3208 17.2542 34.763C17.77 34.8943 18.291 34.9098 18.816 34.9122Z"/>
<path fill-rule="evenodd" clip-rule="evenodd" d="M6.68191 15.4726L6.21442 16.4074L0.577742 17.4863L0 18.6388L4.97695 19.011L3.59514 21.9677L1.74605 22.3123L1.21983 23.3621L3.19401 23.4806C2.46372 24.8674 1.99383 25.3371 1.52394 27.9215C-0.0256601 36.4445 6.17754 44.8277 14.6372 46.6925C23.6852 48.6869 32.5864 42.8906 34.4467 33.8456C34.5853 33.1719 34.6801 32.4993 34.7344 31.8308C34.6947 32.0821 34.6498 32.3339 34.5981 32.5859C32.7935 41.3591 23.4534 46.6411 14.6803 44.8367C6.5496 43.1645 2.46011 36.1029 2.69185 27.9915C2.69846 25.5718 3.55244 23.6502 3.55244 23.6502L4.84344 25.1783L5.36966 24.1285L4.53913 22.4408L6.08111 19.5645L8.05209 21.8294C8.0581 21.832 9.35752 23.3294 9.35752 23.3294L9.93526 22.177C9.93526 22.177 9.16286 20.5859 9.16387 20.576L7.43806 16.9949L7.89592 16.0814C8.33675 15.2022 8.94496 13.843 8.39608 13.5678C7.84721 13.2925 7.12233 14.5934 6.68151 15.4726H6.68191Z"/>
</svg>