<svg width="192" height="192" viewBox="0 0 192 192" fill="none" xmlns="http://www.w3.org/2000/svg">
<rect width="192" height="192" fill="white"/>
<g clip-path="url(#clip0_1254_4305)">
<mask id="mask0_1254_4305" style="mask-type:luminance" maskUnits="userSpaceOnUse" x="32" y="32" width="128" height="128">
<path d="M160 32H32V160H160V32Z" fill="white"/>
</mask>
<g mask="url(#mask0_1254_4305)">
<path d="M58.9724 112.591C58.9724 120.026 52.9662 125.987 45.5765 125.987C38.1868 125.987 32.1356 119.981 32.1356 112.591C32.1356 105.201 38.1419 99.1951 45.5315 99.1951H58.9274V112.591H58.9724Z" fill="#E01E5A"/>
<path d="M65.6502 112.592C65.6502 105.157 71.6565 99.1959 79.0462 99.1959C86.4358 99.1959 92.4421 105.202 92.4421 112.592V146.098C92.4421 153.533 86.4358 159.494 79.0462 159.494C71.6565 159.494 65.6502 153.533 65.6502 146.098V112.592Z" fill="#E01E5A"/>
<path d="M79.0902 58.7077C71.6553 58.7077 65.6943 52.7016 65.6943 45.3119C65.6943 37.9222 71.7004 31.916 79.0902 31.916C86.4799 31.916 92.4859 37.9222 92.4859 45.3119V58.7077H79.0902Z" fill="#36C5F0"/>
<path d="M79.095 65.5014C86.5296 65.5014 92.4909 71.5077 92.4909 78.8973C92.4909 86.2869 86.4846 92.2932 79.095 92.2932H45.4534C38.0187 92.2932 32.0575 86.2869 32.0575 78.8973C32.0575 71.5077 38.0637 65.5014 45.4534 65.5014H79.095Z" fill="#36C5F0"/>
<path d="M132.817 78.8985C132.817 71.4638 138.824 65.5026 146.213 65.5026C153.603 65.5026 159.609 71.5088 159.609 78.8985C159.609 86.2881 153.603 92.2944 146.213 92.2944H132.817V78.8985Z" fill="#2EB67D"/>
<path d="M126.134 78.9177C126.134 86.3523 120.127 92.3136 112.738 92.3136C105.348 92.3136 99.3417 86.3075 99.3417 78.9177V45.3211C99.3417 37.8865 105.348 31.9252 112.738 31.9252C120.127 31.9252 126.134 37.8865 126.134 45.3211V78.9177Z" fill="#2EB67D"/>
<path d="M112.682 132.698C120.116 132.698 126.078 138.704 126.078 146.094C126.078 153.484 120.072 159.49 112.682 159.49C105.292 159.49 99.2858 153.484 99.2858 146.094V132.698H112.682Z" fill="#ECB22E"/>
<path d="M112.683 125.987C105.248 125.987 99.287 119.981 99.287 112.591C99.287 105.201 105.293 99.1951 112.683 99.1951H146.324C153.759 99.1951 159.72 105.201 159.72 112.591C159.72 119.981 153.714 125.987 146.324 125.987H112.683Z" fill="#ECB22E"/>
</g>
</g>
<defs>
<clipPath id="clip0_1254_4305">
<rect width="128" height="128" fill="white" transform="translate(32 32)"/>
</clipPath>
</defs>
</svg>
